<svg width="29" height="28" viewBox="0 0 29 28" fill="none" xmlns="http://www.w3.org/2000/svg">
<path d="M7.84891 2.45517C7.64661 1.84828 6.78817 1.84828 6.58587 2.45517L6.07946 3.97441C5.74817 4.96828 4.96828 5.74817 3.97441 6.07946L2.45517 6.58587C1.84828 6.78817 1.84828 7.64661 2.45517 7.84891L3.97441 8.35532C4.96828 8.68661 5.74817 9.4665 6.07946 10.4604L6.58587 11.9796C6.78817 12.5865 7.64661 12.5865 7.84891 11.9796L8.35532 10.4604C8.68661 9.4665 9.4665 8.68661 10.4604 8.35532L11.9796 7.84891C12.5865 7.64661 12.5865 6.78817 11.9796 6.58587L10.4604 6.07946C9.4665 5.74817 8.68661 4.96828 8.35532 3.97441L7.84891 2.45517Z" fill="#2F37FF"/>
<path fill-rule="evenodd" clip-rule="evenodd" d="M15.4309 9.24508C14.8979 10.8029 14.1821 12.3771 13.2796 13.2796C12.3771 14.1821 10.8029 14.8979 9.24508 15.4309C9.147 15.4644 9.04899 15.4973 8.95121 15.5294C8.64821 15.6289 8.34747 15.7214 8.05411 15.807C7.91494 15.8477 7.77743 15.8867 7.64212 15.9242C7.07581 16.0812 7.07581 17.1361 7.64212 17.2931C7.77743 17.3307 7.91494 17.3697 8.05411 17.4103C8.34747 17.496 8.64821 17.5885 8.95121 17.688C9.04899 17.7201 9.147 17.7529 9.24508 17.7865C10.8029 18.3195 12.3771 19.0353 13.2796 19.9378C14.1821 20.8403 14.8979 22.4144 15.4309 23.9723C15.4644 24.0704 15.4973 24.1684 15.5294 24.2662C15.6289 24.5692 15.7214 24.8699 15.807 25.1633C15.8477 25.3025 15.8867 25.44 15.9242 25.5753C16.0812 26.1416 17.1361 26.1416 17.2931 25.5753C17.3307 25.44 17.3697 25.3025 17.4103 25.1633C17.496 24.8699 17.5885 24.5692 17.688 24.2662C17.7201 24.1684 17.7529 24.0704 17.7865 23.9723C18.3195 22.4144 19.0353 20.8403 19.9378 19.9378C20.8403 19.0353 22.4144 18.3195 23.9723 17.7865C24.0704 17.7529 24.1684 17.7201 24.2662 17.688C24.5692 17.5885 24.8699 17.496 25.1633 17.4103C25.3025 17.3697 25.44 17.3307 25.5753 17.2931C26.1416 17.1361 26.1416 16.0812 25.5753 15.9242C25.44 15.8867 25.3025 15.8477 25.1633 15.807C24.8699 15.7214 24.5692 15.6289 24.2662 15.5294C24.1684 15.4973 24.0704 15.4644 23.9723 15.4309C22.4144 14.8979 20.8403 14.1821 19.9378 13.2796C19.0353 12.3771 18.3195 10.8029 17.7865 9.24508C17.7529 9.147 17.7201 9.04899 17.688 8.95121C17.5885 8.64821 17.496 8.34747 17.4103 8.05411C17.3697 7.91494 17.3307 7.77743 17.2931 7.64212C17.1361 7.07581 16.0812 7.07581 15.9242 7.64212C15.8867 7.77743 15.8477 7.91494 15.807 8.05411C15.7214 8.34747 15.6289 8.64821 15.5294 8.95121C15.4973 9.04899 15.4644 9.147 15.4309 9.24508Z" fill="#2F37FF"/>
</svg>
