<svg width="24" height="24" viewBox="0 0 24 24" fill="none" xmlns="http://www.w3.org/2000/svg">
<path opacity="0.12" d="M12 -1.04907e-06C5.37259 -1.62846e-06 1.62846e-06 5.37258 1.04907e-06 12C4.69686e-07 18.6274 5.37258 24 12 24C18.6274 24 24 18.6274 24 12C24 5.37258 18.6274 -4.69686e-07 12 -1.04907e-06Z" fill="#818C99"/>
<path d="M7.26359 16.7364C6.91212 16.3849 6.91212 15.8151 7.26359 15.4636L10.727 12L7.26359 8.53638C6.94141 8.2142 6.91456 7.70852 7.18305 7.35576L7.26359 7.26359C7.61506 6.91212 8.18491 6.91212 8.53639 7.26359L12 10.727L15.4636 7.26359C15.8151 6.91212 16.3849 6.91212 16.7364 7.26359C17.0879 7.61506 17.0879 8.18491 16.7364 8.53638L13.273 12L16.7364 15.4636C17.0586 15.7858 17.0854 16.2915 16.8169 16.6442L16.7364 16.7364C16.3849 17.0879 15.8151 17.0879 15.4636 16.7364L12 13.273L8.53638 16.7364C8.18491 17.0879 7.61506 17.0879 7.26359 16.7364Z" fill="#818C99"/>
</svg>
