<svg width="29" height="28" viewBox="0 0 29 28" fill="none" xmlns="http://www.w3.org/2000/svg">
<path d="M21.75 6.75028C24.038 6.75028 25.8928 8.6051 25.8928 10.8931V20.2146C25.8928 22.5026 24.038 24.3574 21.75 24.3574H7.24997C4.96194 24.3574 3.10712 22.5026 3.10712 20.2146V10.8931C3.10712 8.6051 4.96194 6.75028 7.24997 6.75028H21.75ZM21.75 8.82171H7.24997C6.10596 8.82171 5.17855 9.74912 5.17855 10.8931V20.2146C5.17855 21.3586 6.10596 22.286 7.24997 22.286H21.75C22.894 22.286 23.8214 21.3586 23.8214 20.2146V10.8931C23.8214 9.74912 22.894 8.82171 21.75 8.82171ZM12.9464 12.2607C13.0473 12.2607 13.1459 12.2901 13.2303 12.3454L17.4442 15.1076C17.6834 15.2644 17.7502 15.5854 17.5934 15.8246C17.5518 15.888 17.4968 15.9416 17.4323 15.9814L13.2184 18.5824C12.975 18.7326 12.6559 18.6571 12.5057 18.4137C12.4553 18.3319 12.4285 18.2378 12.4285 18.1417V12.7785C12.4285 12.4925 12.6604 12.2607 12.9464 12.2607ZM18.6428 2.60742C19.7348 2.60742 20.6295 3.45244 20.7086 4.52426L20.7143 4.67885H8.28569C8.28569 3.53483 9.2131 2.60742 10.3571 2.60742H18.6428Z" fill="#99A2AD"/>
</svg>
