<svg width="29" height="28" viewBox="0 0 29 28" fill="none" xmlns="http://www.w3.org/2000/svg">
<path d="M21.75 6.75003C24.038 6.75003 25.8928 8.60486 25.8928 10.8929V20.2143C25.8928 22.5024 24.038 24.3572 21.75 24.3572H7.24997C4.96194 24.3572 3.10712 22.5024 3.10712 20.2143V10.8929C3.10712 8.60486 4.96194 6.75003 7.24997 6.75003H21.75ZM21.75 8.82146H7.24997C6.10596 8.82146 5.17855 9.74887 5.17855 10.8929V20.2143C5.17855 21.3583 6.10596 22.2857 7.24997 22.2857H21.75C22.894 22.2857 23.8214 21.3583 23.8214 20.2143V10.8929C23.8214 9.74887 22.894 8.82146 21.75 8.82146ZM12.9464 12.2604C13.0473 12.2604 13.1459 12.2899 13.2303 12.3452L17.4442 15.1074C17.6834 15.2642 17.7502 15.5852 17.5934 15.8244C17.5518 15.8878 17.4968 15.9413 17.4323 15.9811L13.2184 18.5821C12.975 18.7323 12.6559 18.6568 12.5057 18.4134C12.4553 18.3317 12.4285 18.2375 12.4285 18.1414V12.7783C12.4285 12.4923 12.6604 12.2604 12.9464 12.2604ZM18.6428 2.60718C19.7348 2.60718 20.6295 3.45219 20.7086 4.52401L20.7143 4.67861H8.28569C8.28569 3.53459 9.2131 2.60718 10.3571 2.60718H18.6428Z" fill="#2F37FF"/>
</svg>
