<svg width="17" height="18" viewBox="0 0 17 18" fill="none" xmlns="http://www.w3.org/2000/svg">
<path d="M7.75 5.25C7.75 4.83579 8.08579 4.5 8.5 4.5C8.91421 4.5 9.25 4.83579 9.25 5.25V9.75C9.25 10.1642 8.91421 10.5 8.5 10.5C8.08579 10.5 7.75 10.1642 7.75 9.75V5.25Z" fill="#99A2AD"/>
<path d="M8.49998 12C8.00292 12 7.59998 12.4029 7.59998 12.9C7.59998 13.3971 8.00292 13.8 8.49998 13.8C8.99703 13.8 9.39998 13.3971 9.39998 12.9C9.39998 12.4029 8.99703 12 8.49998 12Z" fill="#99A2AD"/>
<path fill-rule="evenodd" clip-rule="evenodd" d="M8.5 0.5C3.80558 0.5 0 4.30558 0 9C0 13.6944 3.80558 17.5 8.5 17.5C13.1944 17.5 17 13.6944 17 9C17 4.30558 13.1944 0.5 8.5 0.5ZM1.5 9C1.5 12.866 4.63401 16 8.5 16C12.366 16 15.5 12.866 15.5 9C15.5 5.13401 12.366 2 8.5 2C4.63401 2 1.5 5.13401 1.5 9Z" fill="#99A2AD"/>
</svg>
